PathFileType	4	(X/Y/Z)	C:/Users/opensim2020/Desktop/walking_exp_matlab/subject01_walking15_straight_01.trc	
DataRate	CameraRate	NumFrames	NumMarkers	Units	OrigDataRate	OrigDataStartFrame	OrigNumFrames	
100.00	100.00	8	43	mm	100.00	730	125	
Frame#	Time	LFHD			RFHD			LBHD			RBHD			C7			T10			CLAV			STRN			RBAK			LSHO			LUPA			LELB			LFRM			LWRA			LWRB			LFIN			RSHO			RUPA			RELB			RFRM			RWRA			RWRB			RFIN			LASI			RASI			LPSI			RPSI			LTHI			LKNE			LTIB			LANK			LHEE			LTOE			RTHI			RKNE			RTIB			RANK			RHEE			RTOE			*39			*40			*41			*42			
		X1	Y1	Z1	X2	Y2	Z2	X3	Y3	Z3	X4	Y4	Z4	X5	Y5	Z5	X6	Y6	Z6	X7	Y7	Z7	X8	Y8	Z8	X9	Y9	Z9	X10	Y10	Z10	X11	Y11	Z11	X12	Y12	Z12	X13	Y13	Z13	X14	Y14	Z14	X15	Y15	Z15	X16	Y16	Z16	X17	Y17	Z17	X18	Y18	Z18	X19	Y19	Z19	X20	Y20	Z20	X21	Y21	Z21	X22	Y22	Z22	X23	Y23	Z23	X24	Y24	Z24	X25	Y25	Z25	X26	Y26	Z26	X27	Y27	Z27	X28	Y28	Z28	X29	Y29	Z29	X30	Y30	Z30	X31	Y31	Z31	X32	Y32	Z32	X33	Y33	Z33	X34	Y34	Z34	X35	Y35	Z35	X36	Y36	Z36	X37	Y37	Z37	X38	Y38	Z38	X39	Y39	Z39	X40	Y40	Z40	X41	Y41	Z41	X42	Y42	Z42	X43	Y43	Z43	

63	0.620	1417.15820	-126.87096	1665.86377	1523.40808	-89.08954	1675.00232	1452.68958	-236.74998	1620.09534	1566.08350	-198.93764	1628.01282	1485.10339	-261.96637	1429.73816	1487.01941	-304.00882	1136.44067	1479.76184	-115.97485	1362.61304	1474.70959	-76.69695	1206.52820	1564.45337	-317.02728	1238.80798	1323.08105	-182.23476	1399.93689	1239.63062	-241.56314	1222.55115	1246.44519	-280.59607	1079.13367	1220.39001	-276.42114	966.85040	1236.28748	-234.56918	831.95319	1214.36841	-289.52060	844.61499	1204.43335	-265.81906	762.50140	1630.65027	-178.42181	1399.19739	1739.52148	-218.27951	1201.63342	1749.71436	-191.23189	1076.12341	1768.79456	-109.83421	980.93469	1732.79028	13.37247	918.23889	1774.17847	-20.19543	896.86243	1769.96155	51.11918	849.38019	1380.37463	-125.04684	931.34406	1597.23022	-136.28142	927.84296	1420.14258	-312.81696	941.48969	1563.39941	-318.66721	952.15942	1317.29700	-63.05433	616.25677	1341.62939	-33.32806	486.75562	1332.85852	-48.43287	300.49048	1385.60474	-20.65720	78.41548	1442.36682	-55.56518	41.03319	1373.12500	123.74728	73.88758	1644.38342	-261.24237	607.48309	1619.22131	-292.92896	450.41937	1619.97424	-386.44257	299.92126	1569.93103	-455.13055	103.73200	1518.20129	-508.97717	79.99283	1571.26868	-328.32462	32.90689	1504.02222	-105.44919	1707.91846	-3102.02295	1973.09802	1023.87201	-3140.82910	2012.43396	1022.04730			 
64	0.630	1415.87280	-113.29591	1664.19067	1522.05188	-75.25903	1673.46265	1451.74866	-223.14111	1618.35022	1564.99609	-185.08960	1626.43579	1484.24426	-248.24033	1428.22253	1486.07874	-290.17715	1134.80042	1478.89075	-102.19417	1361.01038	1474.04712	-62.94345	1204.94824	1563.93774	-303.28040	1237.46594	1322.17188	-168.34532	1398.25171	1238.90063	-228.74843	1221.09619	1246.19348	-268.74127	1077.98193	1220.27991	-266.00409	965.79138	1235.78198	-225.41861	830.35126	1214.24280	-280.37631	843.69562	1204.51282	-257.77341	761.20313	1629.64624	-164.33176	1397.93713	1739.18042	-203.50290	1200.93994	1749.85693	-176.12112	1075.30188	1768.34509	-92.57452	981.72510	1731.63354	31.51808	921.83344	1773.29004	-1.20320	899.71472	1768.78259	71.07955	854.17950	1380.56335	-110.16457	929.92328	1597.43164	-122.98000	926.46765	1419.29236	-298.28403	939.83685	1562.41528	-305.10449	951.20636	1317.89502	-52.08556	612.87048	1342.73242	-19.56231	484.95706	1333.01819	-25.68853	298.99078	1385.48657	12.93270	78.49703	1442.11047	-20.30869	38.76331	1375.17517	158.03952	80.73571	1644.75085	-251.68633	607.50757	1619.77380	-285.21616	450.67148	1620.31226	-381.31607	301.81406	1570.65381	-453.10202	106.52090	1518.98621	-508.03375	84.71051	1571.29883	-328.09396	32.86291	1502.64612	-91.77142	1706.36328	-3101.89502	1973.16919	1023.56317	-3140.72290	2012.45532	1022.00500			 
65	0.640	1414.44556	-99.67641	1662.44214	1520.67383	-61.32783	1671.85010	1450.61230	-209.13101	1616.37268	1563.77466	-171.17519	1624.78235	1483.26624	-234.46451	1426.62659	1485.10669	-276.31601	1133.12109	1477.89331	-88.33248	1359.32434	1473.34607	-49.03286	1203.40393	1563.27856	-289.55722	1236.03040	1321.12744	-154.39066	1396.51221	1238.13293	-215.87642	1219.50354	1245.92627	-256.78836	1076.77502	1219.97498	-255.03619	964.53528	1235.53650	-215.72534	828.67206	1214.00549	-270.50797	842.53143	1204.24329	-248.80730	759.64648	1628.58508	-150.16980	1396.61682	1738.71362	-188.73872	1200.28015	1749.88806	-161.22104	1074.47412	1767.87927	-75.85365	982.33026	1730.41003	49.12379	925.11847	1772.28296	17.17735	902.29596	1767.51917	90.41312	858.49530	1380.78442	-95.11307	928.46698	1597.60229	-109.38853	925.18146	1418.20825	-283.62476	938.25964	1561.18066	-291.40555	950.05737	1317.51038	-40.86965	609.25964	1343.45044	-5.37261	483.25598	1333.32458	-4.00878	297.99796	1386.01453	43.47092	78.73808	1443.01172	11.87485	38.02573	1376.97327	189.15804	86.64826	1645.31494	-241.48148	607.54047	1620.23364	-276.69250	450.66827	1620.64331	-375.54224	303.54318	1571.56152	-450.92886	109.47798	1520.25061	-505.81412	88.77019	1571.31873	-327.74670	32.82215	1501.19507	-78.05686	1704.72839	-3101.96802	1973.03503	1023.56317	-3140.74731	2012.48340	1022.02582			 
66	0.650	1412.97888	-85.92551	1660.72827	1519.12354	-47.50197	1670.26404	1449.21753	-195.58038	1614.75806	1562.37695	-157.28548	1623.15613	1482.02808	-220.74356	1425.02380	1484.11963	-262.23083	1131.33850	1476.69812	-74.41709	1357.67126	1472.53821	-35.08270	1201.83850	1562.45386	-275.78705	1234.63257	1319.87305	-140.39221	1394.63855	1237.21130	-202.76781	1217.81396	1245.31799	-244.16435	1075.27405	1219.46118	-243.48869	963.07849	1234.85400	-205.17291	826.91656	1213.70410	-259.99243	841.19269	1203.79871	-239.11896	758.16559	1627.30029	-136.04832	1395.33350	1738.07007	-173.96333	1199.66797	1749.70972	-146.49484	1073.67358	1767.28516	-59.58442	982.87054	1729.17834	66.17362	928.12616	1770.99902	34.76900	904.48657	1766.25415	108.99686	862.63733	1381.15759	-79.91733	926.91229	1597.64270	-95.13815	923.91248	1416.91711	-268.59781	936.54175	1559.81348	-277.39645	948.93738	1316.29492	-29.28859	605.75073	1343.90002	8.93523	481.85919	1334.03589	16.21249	297.12708	1387.31470	70.95059	79.41484	1444.53271	40.57897	37.86859	1378.45313	216.70503	90.96031	1645.91797	-230.64708	607.21277	1620.68311	-267.25684	450.45972	1621.16211	-368.94107	305.24594	1572.52820	-448.27063	112.56755	1521.32336	-504.33813	94.12695	1571.23120	-327.39862	32.73345	1499.65295	-64.27448	1703.05847	-3102.06470	1973.12671	1023.56256	-3140.68848	2012.58789	1022.16516			 
67	0.660	1411.32288	-72.13937	1659.08008	1517.46924	-33.63346	1668.67944	1447.74109	-181.75629	1613.11499	1560.86743	-143.39771	1621.58350	1480.52698	-206.90440	1423.31384	1483.02832	-247.90309	1129.52808	1475.46448	-60.39407	1356.05981	1471.69238	-20.86295	1200.37708	1561.47424	-261.87698	1233.22717	1318.42468	-126.19694	1392.75000	1236.21545	-189.31856	1216.00696	1244.57275	-231.15074	1073.63684	1218.92090	-231.41212	961.49884	1233.88196	-193.64313	825.16223	1213.20630	-248.69281	839.68396	1203.31262	-228.56290	756.53931	1625.81653	-121.97931	1394.07019	1737.27905	-159.24272	1199.08643	1749.34814	-131.95648	1072.91943	1766.60559	-43.74093	983.33136	1727.90710	82.60423	930.80219	1769.94531	51.90582	906.61639	1764.89563	126.89332	866.29901	1381.51819	-64.57548	925.25018	1597.93652	-80.81151	922.47626	1415.41541	-253.37851	934.86334	1558.25525	-263.56094	947.73761	1315.04077	-16.47255	603.04010	1344.27942	23.16984	480.66833	1335.15759	34.87263	296.08328	1389.19250	94.86414	79.89704	1446.76184	65.54872	38.02103	1380.08838	240.73062	94.21114	1646.38757	-218.94531	606.75580	1621.08557	-256.85678	450.07632	1621.72949	-361.54327	306.79196	1573.74585	-445.28345	116.03521	1522.72583	-501.90640	99.38422	1571.26807	-326.92456	32.76255	1497.99231	-50.42851	1701.43823	-3101.99414	1973.14111	1023.61841	-3140.81958	2012.46423	1022.05432			 
68	0.670	1409.60999	-58.32325	1657.59460	1515.59570	-19.90909	1667.13953	1446.07532	-167.90428	1611.65723	1559.17151	-129.47856	1620.12549	1478.74597	-193.04079	1421.66174	1481.91504	-233.36699	1127.71484	1474.02100	-46.21021	1354.57544	1470.77600	-6.54646	1198.97058	1560.25085	-247.86691	1231.75891	1316.80835	-111.98937	1390.79919	1235.02673	-175.59164	1214.04236	1243.55530	-217.61311	1071.82031	1218.10852	-218.49780	959.74109	1232.84033	-181.71605	823.06573	1212.57349	-236.64478	838.01971	1202.77771	-217.08925	754.70801	1624.08508	-108.02026	1392.88464	1736.35938	-144.51334	1198.55896	1748.80969	-117.66010	1072.29163	1766.06091	-28.12838	983.90131	1726.69409	98.49834	933.13666	1768.54211	68.39349	908.40833	1763.42578	143.97662	869.33563	1382.00110	-48.98943	923.45288	1598.48206	-66.86251	920.89508	1413.76086	-237.86505	933.18195	1556.44629	-249.04716	946.12659	1314.87036	-1.65783	601.61194	1344.79626	37.76571	479.69998	1336.58826	51.96072	294.73264	1391.50989	115.07506	79.57863	1449.24695	86.66113	37.52797	1381.94519	261.05130	95.69424	1646.70508	-206.39580	606.02814	1621.51123	-245.66481	449.53113	1622.37793	-353.43802	308.41745	1574.94312	-441.98154	119.88601	1524.10217	-499.05841	104.92848	1571.46790	-326.49332	32.95584	1496.25085	-36.56126	1699.94702	-3101.98804	1973.09412	1023.41199	-3140.73364	2012.51587	1022.08728			 
69	0.680	1407.76086	-44.31166	1656.14294	1513.90466	-5.81067	1665.76770	1444.16699	-153.97729	1610.34302	1557.28369	-115.60349	1618.79907	1476.86194	-179.18097	1420.24524	1480.83630	-218.67232	1125.87708	1472.43103	-31.93070	1353.19226	1469.74121	7.95262	1197.72485	1558.69800	-233.62151	1230.30139	1315.00928	-97.69661	1388.89294	1233.71387	-161.45369	1211.95117	1242.62720	-203.66734	1069.89087	1217.16064	-204.98820	957.82361	1231.83643	-168.78093	821.10779	1211.76770	-223.78687	836.21844	1201.94995	-204.79463	752.79272	1622.27783	-94.05047	1391.83716	1735.20422	-130.02473	1198.09985	1748.14990	-103.64159	1071.83704	1765.02563	-13.35257	984.26373	1725.42615	113.85230	935.12476	1767.19202	84.06599	909.86584	1761.76733	160.18657	871.75745	1382.37280	-33.19880	921.54193	1598.82690	-52.23233	919.64374	1412.12854	-222.21198	931.53326	1554.84705	-234.70352	944.92230	1316.16602	15.14546	601.34772	1345.68286	52.96127	478.92740	1338.25708	67.88528	292.94519	1394.05347	132.14095	78.85193	1452.11926	103.89342	36.38732	1384.35242	277.51935	95.77836	1647.02075	-193.15135	605.29150	1622.02014	-233.68901	448.83072	1623.16870	-344.83081	310.28604	1576.22693	-438.22284	123.94890	1525.55054	-495.67694	111.10813	1571.52014	-326.02258	32.95816	1494.39697	-22.52835	1698.56262	-3102.19824	1972.95142	1023.89874	-3140.73584	2012.56006	1022.12170			 
70	0.690	1405.77271	-30.32613	1654.88501	1511.80920	7.96474	1664.41772	1442.10767	-140.04849	1609.10815	1555.25635	-101.69910	1617.52258	1474.56250	-164.96080	1418.58679	1479.65393	-203.77003	1124.08521	1470.63721	-17.64314	1351.92493	1468.67810	22.66703	1196.63049	1556.95959	-219.35005	1228.79846	1313.02173	-83.30122	1386.93774	1232.31494	-146.89557	1209.69202	1241.37231	-188.87497	1067.98987	1216.07556	-190.74922	955.76770	1231.05383	-155.26031	818.96265	1210.82239	-210.13934	834.25873	1200.83264	-191.60687	750.67029	1620.20532	-80.19826	1390.83887	1733.87000	-115.86001	1197.73987	1747.37732	-89.83361	1071.51404	1764.11218	1.15005	984.63068	1724.24524	128.56706	936.70941	1766.11462	99.25953	911.18890	1760.59546	176.06670	874.11548	1382.78381	-17.15531	919.79590	1599.10291	-37.36525	918.39728	1410.67908	-206.49796	930.05762	1553.10400	-219.57150	943.23004	1318.35107	32.96330	601.69238	1346.85510	68.49813	478.18091	1340.08130	82.38056	290.82510	1396.75952	145.54013	76.71970	1454.86047	117.45695	34.33255	1386.70569	291.08060	93.66714	1647.32776	-179.11946	604.65942	1622.84497	-220.61366	448.35355	1624.09058	-335.42831	312.37308	1577.67834	-433.89471	128.40262	1527.24353	-491.57214	117.91717	1571.62708	-325.53275	32.95313	1492.45789	-8.62415	1697.24792	-3101.91455	1973.15967	1023.35352	-3140.70264	2012.53015	1022.09930			 
